<svg width="84" height="84" viewBox="0 0 84 84" fill="none" xmlns="http://www.w3.org/2000/svg">
<g clip-path="url(#clip0_1_12)">
<path d="M14.2502 72.0002C13.6732 72.0002 13.0993 71.7803 12.6593 71.3413C11.7803 70.4623 11.7803 69.0382 12.6593 68.1592L29.1593 51.6593C30.0383 50.7803 31.4622 50.7803 32.3412 51.6593C33.2202 52.5383 33.2202 53.9622 32.3412 54.8412L15.8412 71.3413C15.4012 71.7803 14.8272 72.0002 14.2502 72.0002Z" fill="white"/>
<path d="M2.25025 84.0003C1.67325 84.0003 1.09925 83.7803 0.65925 83.3413C-0.21975 82.4623 -0.21975 81.0382 0.65925 80.1592L5.15925 75.6593C6.03825 74.7803 7.46225 74.7803 8.34125 75.6593C9.22025 76.5383 9.22025 77.9623 8.34125 78.8413L3.84125 83.3413C3.40125 83.7803 2.82725 84.0003 2.25025 84.0003Z" fill="white"/>
<path d="M38.2502 72.0002C37.6732 72.0002 37.0993 71.7803 36.6593 71.3413C35.7803 70.4623 35.7803 69.0382 36.6593 68.1592L53.1593 51.6593C54.0383 50.7803 55.4623 50.7803 56.3413 51.6593C57.2203 52.5383 57.2203 53.9622 56.3413 54.8412L39.8412 71.3413C39.4012 71.7803 38.8272 72.0002 38.2502 72.0002Z" fill="white"/>
<path d="M26.2502 84.0003C25.6732 84.0003 25.0993 83.7803 24.6593 83.3413C23.7803 82.4623 23.7803 81.0382 24.6593 80.1592L29.1592 75.6593C30.0382 74.7803 31.4622 74.7803 32.3412 75.6593C33.2202 76.5383 33.2202 77.9623 32.3412 78.8413L27.8412 83.3413C27.4012 83.7803 26.8272 84.0003 26.2502 84.0003Z" fill="white"/>
<path d="M14.2502 48.0002C13.6732 48.0002 13.0993 47.7802 12.6593 47.3412C11.7803 46.4622 11.7803 45.0383 12.6593 44.1593L29.1593 27.6593C30.0383 26.7803 31.4622 26.7803 32.3412 27.6593C33.2202 28.5383 33.2202 29.9622 32.3412 30.8412L15.8412 47.3412C15.4012 47.7802 14.8272 48.0002 14.2502 48.0002Z" fill="white"/>
<path d="M2.25025 60.0002C1.67325 60.0002 1.09925 59.7803 0.65925 59.3413C-0.21975 58.4623 -0.21975 57.0382 0.65925 56.1592L5.15925 51.6593C6.03825 50.7803 7.46225 50.7803 8.34125 51.6593C9.22025 52.5383 9.22025 53.9622 8.34125 54.8412L3.84125 59.3413C3.40125 59.7803 2.82725 60.0002 2.25025 60.0002Z" fill="white"/>
<path d="M53.582 20.6529C47.855 19.6869 41.685 18.8419 35.25 18.0679V1.26592C43.396 0.591925 51.543 0.150925 59.689 0.00392474C73.166 -0.239075 84.239 10.8339 83.996 24.3109C83.849 32.4569 83.408 40.6039 82.734 48.7499H65.931C65.158 42.3149 64.312 36.1449 63.346 30.4179C62.503 25.4179 58.582 21.4969 53.582 20.6529Z" fill="white"/>
<path d="M30.75 17.5378C27.643 17.1888 24.488 16.8528 21.268 16.5348C17.71 16.1838 15 13.1798 15 9.60476C15 6.09076 17.615 3.08976 21.103 2.67076C24.319 2.28376 27.534 1.93877 30.75 1.63477V17.5378Z" fill="white"/>
<path d="M82.3649 53.25C82.0599 56.466 81.7149 59.681 81.3289 62.897C80.9099 66.385 77.9089 69 74.3949 69C70.8199 69 67.8159 66.29 67.4639 62.732C67.1459 59.511 66.8099 56.357 66.4609 53.25H82.3649Z" fill="white"/>
</g>
<defs>
<clipPath id="clip0_1_12">
<rect width="84" height="84" fill="white"/>
</clipPath>
</defs>
</svg>
