<svg width="20" height="20" viewBox="0 0 20 20" fill="none" xmlns="http://www.w3.org/2000/svg">
<g clip-path="url(#clip0_27_28)">
<path d="M9.96094 19.9219C15.4102 19.9219 19.9219 15.4004 19.9219 9.96094C19.9219 4.51172 15.4004 0 9.95117 0C4.51172 0 0 4.51172 0 9.96094C0 15.4004 4.52148 19.9219 9.96094 19.9219ZM5.19531 9.9707C5.19531 9.46289 5.54688 9.11133 6.05469 9.11133H9.11133V6.05469C9.11133 5.54688 9.45312 5.18555 9.95117 5.18555C10.459 5.18555 10.8105 5.54688 10.8105 6.05469V9.11133H13.877C14.375 9.11133 14.7363 9.46289 14.7363 9.9707C14.7363 10.4688 14.375 10.8008 13.877 10.8008H10.8105V13.8672C10.8105 14.375 10.459 14.7266 9.95117 14.7266C9.45312 14.7266 9.11133 14.3652 9.11133 13.8672V10.8008H6.05469C5.54688 10.8008 5.19531 10.4688 5.19531 9.9707Z" fill="white" fill-opacity="0.85"/>
</g>
<defs>
<clipPath id="clip0_27_28">
<rect width="19.9219" height="19.9316" fill="white"/>
</clipPath>
</defs>
</svg>
